<svg aria-hidden="true" style="position: absolute; width: 0; height: 0; overflow: hidden;" version="1.1" xmlns="http://www.w3.org/2000/svg" xmlns:xlink="http://www.w3.org/1999/xlink">
<defs>
<symbol id="icon-close-black" viewBox="0 0 32 32">
<path d="M26.667 7.303l-1.97-1.97-7.808 7.808-7.808-7.808-1.97 1.97 7.808 7.808-7.808 7.808 1.97 1.97 7.808-7.808 7.808 7.808 1.97-1.97-7.808-7.808 7.808-7.808z"></path>
</symbol>
<symbol id="icon-email-black" viewBox="0 0 32 32">
<path d="M26.667 5.333h-21.333c-1.467 0-2.652 1.2-2.652 2.667l-0.014 16c0 1.467 1.2 2.667 2.667 2.667h21.333c1.467 0 2.667-1.2 2.667-2.667v-16c0-1.467-1.2-2.667-2.667-2.667zM26.133 11.001l-9.426 5.892c-0.201 0.126-0.446 0.2-0.708 0.2s-0.506-0.075-0.713-0.204l0.006 0.003-9.426-5.892c-0.336-0.201-0.557-0.562-0.557-0.975 0-0.625 0.507-1.132 1.132-1.132 0.233 0 0.449 0.070 0.629 0.19l-0.004-0.003 8.933 5.586 8.933-5.588c0.176-0.118 0.392-0.188 0.624-0.188 0.625 0 1.132 0.507 1.132 1.132 0 0.413-0.221 0.775-0.552 0.972l-0.005 0.003z"></path>
</symbol>
<symbol id="icon-phone-black" viewBox="0 0 32 32">
<path d="M24.882 19.774l-3.268-0.373c-0.090-0.011-0.194-0.018-0.3-0.018-0.707 0-1.347 0.287-1.81 0.75l-2.366 2.368c-3.669-1.894-6.585-4.81-8.427-8.372l-0.051-0.108 2.38-2.377c0.463-0.463 0.75-1.103 0.75-1.81 0-0.106-0.006-0.21-0.019-0.312l0.001 0.012-0.373-3.243c-0.155-1.287-1.24-2.276-2.557-2.276-0.001 0-0.002 0-0.003 0h-2.226c-1.454 0-2.663 1.209-2.574 2.661 0.683 10.987 9.47 19.762 20.444 20.444 1.452 0.089 2.663-1.12 2.663-2.574v-2.226c0-0.004 0-0.008 0-0.012 0-1.308-0.985-2.386-2.253-2.532l-0.012-0.001z"></path>
</symbol>
<symbol id="icon-person-black" viewBox="0 0 32 32">
<path fill="#1e1e1e" style="fill: var(--color1, #1e1e1e)" d="M0 0h32v32h-32z"></path>
<path fill="#fff" style="fill: var(--color2, #fff)" d="M-1045.333-577.778h2844.444v1820.444h-2844.444z"></path>
<path fill="#c4c4c4" style="fill: var(--color3, #c4c4c4)" d="M-1045.333-435.556h2844.444v1066.667h-2844.444z"></path>
<path fill="#000" style="fill: var(--color4, #000)" d="M-1045.333-435.556h2844.444v1066.667h-2844.444z"></path>
<path fill="#2f303a" style="fill: var(--color5, #2f303a)" opacity="0.4" d="M-1045.333-435.556h2844.444v1066.667h-2844.444z"></path>
<path fill="#fff" style="fill: var(--color2, #fff)" d="M-121.291-10.311v10.311h-29.639v-10.311h29.639zM-146.155-55.611v55.611h-13.406v-55.611h13.404zM-125.109-33.534v9.968h-25.82v-9.968h25.82zM-121.175-55.611v10.35h-29.755v-10.35h29.755zM-89.364-50.875h13.902c3.36 0 6.453 0.548 9.28 1.643 2.868 1.109 5.321 2.702 7.377 4.702l-0.005-0.005c2.087 2.037 3.705 4.494 4.85 7.372 1.147 2.876 1.719 6.11 1.719 9.701 0 3.463-0.572 6.596-1.717 9.396-1.147 2.8-2.764 5.195-4.852 7.18-2.089 1.986-4.546 3.515-7.372 4.583-2.827 1.044-5.92 1.564-9.28 1.564h-13.902c-3.387 0-6.507-0.521-9.358-1.564-2.852-1.068-5.333-2.585-7.449-4.546-2.087-1.986-3.716-4.366-4.889-7.141-1.145-2.802-1.717-5.932-1.717-9.396 0-3.591 0.572-6.825 1.717-9.701 1.173-2.878 2.802-5.348 4.889-7.41 2.070-2.016 4.55-3.624 7.301-4.686l0.148-0.050c2.852-1.095 5.972-1.643 9.358-1.643zM-89.364-40.105c-2.037 0-3.872 0.459-5.5 1.376-1.63 0.916-2.916 2.316-3.858 4.201-0.942 1.86-1.413 4.24-1.413 7.143 0 2.011 0.279 3.769 0.841 5.269 0.56 1.504 1.337 2.738 2.329 3.707 0.953 0.933 2.098 1.673 3.371 2.154l0.067 0.022c1.298 0.484 2.684 0.725 4.164 0.725h13.979c1.986 0 3.769-0.432 5.348-1.298 1.579-0.891 2.827-2.228 3.742-4.011 0.942-1.783 1.413-3.998 1.413-6.645 0-2.165-0.267-4.036-0.802-5.616-0.535-1.577-1.285-2.889-2.254-3.932-0.897-1.003-2.009-1.795-3.263-2.307l-0.059-0.021c-1.194-0.484-2.58-0.765-4.031-0.765-0.033 0-0.066 0-0.099 0l0.005-0h-13.979zM-75.996-57.902v60.196h-12.871v-60.196h12.871zM-2.592-10.311v10.311h-29.639v-10.311h29.639zM-27.456-55.611v55.611h-13.404v-55.611h13.404zM-6.411-33.534v9.968h-25.82v-9.968h25.82zM-2.476-55.611v10.35h-29.755v-10.35h29.753zM20.894-55.611v55.611h-13.369v-55.611h13.369zM52.978-55.611l-19.977 33.611h-14.436l-1.605-12.107h9.129l10.693-21.504h16.196zM39.076 0l-13.026-24.329 9.74-8.978 19.097 33.307h-15.813zM89.867-55.611v55.611h-13.404v-55.611h13.404zM106.597-55.611v10.35h-46.482v-10.35h46.48zM129.625-20.51l19.975-35.1h13.404v55.611h-13.404v-35.063l-19.975 35.063h-13.406v-55.611h13.404v35.1zM198.599-23.643h-14.324l-0.076-8.784h11.611c2.089 0 3.756-0.231 5.004-0.688 1.248-0.484 2.151-1.184 2.711-2.101 0.587-0.916 0.878-2.062 0.878-3.436 0-1.579-0.292-2.852-0.878-3.82-0.585-0.967-1.515-1.668-2.788-2.1-1.248-0.459-2.864-0.688-4.852-0.688h-6.569v45.26h-13.404v-55.611h19.973c3.438 0 6.507 0.318 9.205 0.955 2.699 0.612 4.99 1.554 6.875 2.827 1.911 1.273 3.362 2.876 4.356 4.812 0.992 1.909 1.488 4.162 1.488 6.759 0 2.267-0.484 4.393-1.451 6.379s-2.585 3.604-4.85 4.852c-2.242 1.221-5.31 1.858-9.205 1.909l-3.705 3.476zM198.064 0h-17.035l4.583-10.311h12.452c1.833 0 3.298-0.281 4.393-0.841 1.12-0.587 1.922-1.351 2.405-2.293 0.51-0.967 0.764-2.036 0.764-3.207 0-1.426-0.242-2.661-0.725-3.705-0.457-1.040-1.227-1.871-2.189-2.394l-0.026-0.013c-1.019-0.587-2.382-0.878-4.087-0.878h-11.268l0.076-8.784h13.483l3.132 3.513c3.717-0.153 6.658 0.37 8.821 1.566 2.19 1.196 3.756 2.775 4.699 4.736 0.892 1.792 1.413 3.903 1.413 6.136 0 0.005 0 0.010 0 0.015v-0.001c0 3.639-0.789 6.683-2.368 9.127-1.554 2.444-3.883 4.277-6.99 5.5-3.106 1.221-6.951 1.833-11.534 1.833zM268.567-33.534v10.311h-28.532v-10.311h28.532zM244.503-55.611v55.611h-13.406v-55.611h13.406zM277.58-55.611v55.611h-13.369v-55.611h13.369zM305.038-55.611v55.611h-13.369v-55.611h13.369zM365.529-18.868h-13.828v-10.352h13.828c1.884 0 3.412-0.318 4.583-0.955s2.023-1.515 2.558-2.635c0.56-1.147 0.841-2.432 0.841-3.858 0-1.529-0.281-2.94-0.841-4.24-0.536-1.301-1.419-2.367-2.534-3.115l-0.025-0.016c-1.172-0.816-2.699-1.223-4.583-1.223h-8.786v45.26h-13.406v-55.611h22.192c4.455 0 8.288 0.814 11.495 2.444 3.234 1.628 5.717 3.87 7.449 6.722 1.732 2.827 2.597 6.060 2.597 9.701 0 3.591-0.866 6.722-2.597 9.396s-4.215 4.763-7.449 6.265c-3.207 1.476-7.040 2.215-11.495 2.215zM413.228-55.611v55.611h-13.367v-55.611h13.367zM427.051-55.611h13.444v45.298h13.828v-45.298h13.406v45.298h13.636v-45.298h13.367v55.611h-67.68v-55.611zM545.945-10.313v10.313h-29.639v-10.311h29.639zM521.081-55.611v55.611h-13.406v-55.611h13.406zM542.126-33.534v9.968h-25.82v-9.968h25.82zM546.060-55.611v10.35h-29.755v-10.35h29.755zM593.607-33.534v10.311h-28.532v-10.311h28.532zM569.545-55.611v55.611h-13.406v-55.611h13.406zM602.62-55.611v55.611h-13.367v-55.611h13.367zM653.301-33.534v10.311h-28.532v-10.311h28.532zM629.237-55.611v55.611h-13.406v-55.611h13.406zM662.315-55.611v55.611h-13.369v-55.611h13.369zM704.476-19.518h-14.857l-3.973-1.641c-4.532-1.426-7.982-3.54-10.35-6.341-2.368-2.827-3.552-6.428-3.552-10.809 0-3.819 0.853-7.003 2.558-9.547 1.707-2.572 4.126-4.508 7.257-5.808 3.132-1.298 6.85-1.947 11.154-1.947h20.167v55.611h-13.445v-45.26h-6.722c-2.674 0-4.61 0.7-5.806 2.101-1.196 1.374-1.796 3.387-1.796 6.034 0 2.037 0.281 3.641 0.841 4.812 0.587 1.173 1.438 2.012 2.56 2.521 1.12 0.484 2.521 0.725 4.201 0.725h11.687l0.076 9.55zM694.164-24.521l-11.801 24.521h-14.59l11.648-24.521h14.743zM793.46-10.313v10.313h-39.072v-10.311h39.072zM758.818-10.313v23.948h-12.412l-0.917-23.947h13.33zM802.588-10.313l-1.413 23.986h-12.030v-23.984h13.444zM787.616-55.611v10.35h-27.92v-10.35h27.92zM796.631-55.611v55.611h-13.33v-55.611h13.33zM758.818-55.611h13.369l-1.643 22.802c-0.281 3.895-0.725 7.282-1.337 10.16-0.612 2.876-1.337 5.36-2.178 7.449-0.839 2.087-1.756 3.881-2.75 5.385-0.968 1.475-1.999 2.76-3.138 3.94l0.007-0.008c-1.013 1.066-2.060 2.064-3.153 3.010l-0.056 0.047c-1.122 0.962-2.129 1.885-3.107 2.838l0.014-0.013h-8.135v-10.311h2.674c0.789-0.562 1.579-1.312 2.368-2.254 0.814-0.969 1.579-2.279 2.292-3.934s1.337-3.806 1.87-6.455c0.535-2.649 0.942-5.932 1.223-9.854l1.68-22.802zM850.251-55.611v10.35h-28.722v-10.35h28.722zM859.303-55.611v55.611h-13.406v-55.611h13.406zM820.612-55.611h13.33l-1.451 28.263c-0.229 4.277-0.663 7.97-1.3 11.076-0.636 3.083-1.488 5.68-2.558 7.792-1.070 2.089-2.356 3.756-3.858 5.004-1.464 1.215-3.217 2.138-5.137 2.652l-0.095 0.022c-1.961 0.533-4.164 0.802-6.608 0.802h-3.246v-10.311l1.451-0.155c1.172-0.126 2.203-0.444 3.093-0.955 0.892-0.533 1.655-1.324 2.292-2.368 0.663-1.044 1.211-2.382 1.643-4.011 0.434-1.628 0.777-3.602 1.031-5.92 0.281-2.341 0.471-5.079 0.574-8.212l0.839-23.68zM901.312-19.518h-14.857l-3.973-1.641c-4.532-1.426-7.982-3.54-10.35-6.341-2.368-2.827-3.552-6.428-3.552-10.809 0-3.819 0.853-7.003 2.56-9.547 1.705-2.572 4.124-4.508 7.257-5.808 3.131-1.298 6.848-1.947 11.152-1.947h20.167v55.611h-13.445v-45.26h-6.722c-2.674 0-4.608 0.7-5.806 2.101-1.196 1.374-1.794 3.387-1.794 6.034 0 2.037 0.279 3.641 0.839 4.812 0.587 1.173 1.438 2.012 2.56 2.521 1.12 0.484 2.521 0.725 4.201 0.725h11.687l0.076 9.55zM890.999-24.521l-11.801 24.521h-14.59l11.648-24.521h14.743zM38.612 83.024h-14.324l-0.076-8.784h11.612c2.087 0 3.755-0.231 5.003-0.688 1.248-0.484 2.151-1.184 2.711-2.101 0.587-0.916 0.88-2.062 0.88-3.436 0-1.579-0.293-2.852-0.88-3.82-0.585-0.967-1.515-1.668-2.788-2.1-1.248-0.459-2.864-0.688-4.852-0.688h-6.569v45.26h-13.404v-55.611h19.975c3.436 0 6.505 0.318 9.204 0.955 2.7 0.612 4.992 1.554 6.875 2.827 1.911 1.273 3.362 2.876 4.356 4.812 0.992 1.909 1.49 4.164 1.49 6.761 0 2.265-0.485 4.391-1.452 6.377s-2.585 3.604-4.85 4.852c-2.24 1.221-5.31 1.858-9.205 1.909l-3.705 3.476zM38.078 106.667h-17.036l4.583-10.311h12.452c1.833 0 3.298-0.281 4.391-0.841 1.122-0.587 1.924-1.351 2.407-2.293 0.51-0.967 0.764-2.036 0.764-3.207 0-1.426-0.242-2.661-0.725-3.705-0.457-1.040-1.227-1.871-2.189-2.394l-0.026-0.013c-1.019-0.587-2.382-0.878-4.089-0.878h-11.266l0.076-8.784h13.483l3.132 3.513c3.716-0.153 6.658 0.37 8.823 1.566 2.188 1.196 3.755 2.775 4.697 4.736 0.892 1.792 1.413 3.904 1.413 6.137 0 0.005 0 0.010 0 0.015v-0.001c0 3.639-0.789 6.683-2.368 9.127-1.554 2.444-3.883 4.277-6.99 5.5-3.106 1.221-6.951 1.833-11.534 1.833zM94.676 62.743l-13.559 43.924h-14.4l20.436-55.611h9.129l-1.605 11.687zM105.906 106.667l-13.598-43.924-1.756-11.687h9.244l20.546 55.611h-14.437zM105.371 85.927v10.35h-28.532v-10.35h28.532zM128.818 51.056h13.444v45.298h13.828v-45.296h13.404v45.298h13.637v-45.298h13.367v55.609h-67.68v-55.611zM256.498 77.753v2.254c0 4.252-0.599 8.071-1.796 11.458-1.172 3.36-2.839 6.24-5.004 8.633-2.101 2.303-4.659 4.15-7.534 5.406l-0.143 0.056c-2.955 1.248-6.213 1.872-9.778 1.872-3.591 0-6.875-0.624-9.854-1.872-3.028-1.318-5.597-3.165-7.701-5.446l-0.014-0.016c-2.164-2.395-3.845-5.271-5.042-8.633-1.172-3.387-1.756-7.205-1.756-11.458v-2.254c0-4.252 0.585-8.071 1.756-11.458 1.196-3.387 2.866-6.263 5.004-8.631 2.089-2.32 4.65-4.171 7.536-5.41l0.14-0.053c2.98-1.273 6.263-1.909 9.854-1.909 3.564 0 6.825 0.636 9.778 1.909 3.043 1.284 5.617 3.136 7.699 5.442l0.017 0.019c2.164 2.37 3.845 5.246 5.042 8.633s1.796 7.205 1.796 11.458zM242.9 80.007v-2.329c0-2.75-0.242-5.17-0.725-7.259-0.459-2.112-1.147-3.883-2.062-5.308-0.917-1.426-2.050-2.496-3.399-3.209-1.324-0.738-2.839-1.108-4.546-1.108-1.783 0-3.335 0.37-4.66 1.108-1.324 0.713-2.432 1.783-3.323 3.209-0.892 1.426-1.566 3.195-2.025 5.308-0.432 2.089-0.649 4.508-0.649 7.257v2.329c0 2.725 0.217 5.145 0.649 7.259 0.459 2.087 1.132 3.858 2.025 5.308 0.916 1.452 2.037 2.548 3.36 3.285 1.349 0.738 2.916 1.108 4.699 1.108 1.707 0 3.221-0.37 4.546-1.108 1.323-0.738 2.43-1.833 3.323-3.285 0.916-1.451 1.604-3.221 2.062-5.308 0.484-2.114 0.725-4.533 0.725-7.257zM305.611 51.056v10.35h-24.178v45.26h-13.367v-55.611h37.545zM360.912 77.753v2.254c0 4.252-0.599 8.071-1.796 11.458-1.172 3.36-2.839 6.24-5.004 8.633-2.101 2.303-4.658 4.151-7.534 5.406l-0.143 0.056c-2.953 1.248-6.213 1.872-9.778 1.872-3.589 0-6.875-0.624-9.854-1.872-3.028-1.318-5.597-3.165-7.701-5.446l-0.014-0.016c-2.164-2.395-3.845-5.271-5.042-8.633-1.172-3.387-1.756-7.205-1.756-11.458v-2.254c0-4.252 0.585-8.071 1.756-11.458 1.196-3.387 2.866-6.263 5.004-8.631 2.089-2.32 4.65-4.171 7.536-5.41l0.14-0.053c2.98-1.273 6.265-1.909 9.854-1.909 3.564 0 6.825 0.636 9.778 1.909 3.043 1.284 5.617 3.136 7.699 5.442l0.017 0.019c2.164 2.37 3.845 5.246 5.042 8.633s1.796 7.205 1.796 11.458zM347.314 80.007v-2.329c0-2.75-0.242-5.17-0.725-7.259-0.459-2.112-1.147-3.883-2.062-5.308-0.917-1.426-2.050-2.496-3.399-3.209-1.324-0.738-2.839-1.108-4.546-1.108-1.783 0-3.335 0.37-4.66 1.108-1.324 0.713-2.432 1.783-3.323 3.209s-1.566 3.195-2.025 5.308c-0.432 2.089-0.649 4.508-0.649 7.257v2.329c0 2.725 0.217 5.145 0.649 7.259 0.459 2.087 1.134 3.858 2.025 5.308 0.916 1.452 2.037 2.548 3.36 3.285 1.351 0.738 2.916 1.108 4.699 1.108 1.707 0 3.221-0.37 4.546-1.108 1.323-0.738 2.432-1.833 3.323-3.285 0.916-1.451 1.604-3.221 2.062-5.308 0.484-2.114 0.725-4.533 0.725-7.257zM434.274 51.056v10.35h-24.178v45.26h-13.367v-55.611h37.545zM405.131 70.19h11.956c4.507 0 8.428 0.752 11.764 2.254 3.337 1.502 5.908 3.604 7.716 6.302 1.833 2.699 2.75 5.856 2.75 9.472 0 2.725-0.523 5.22-1.566 7.486-1.099 2.316-2.62 4.265-4.48 5.822l-0.027 0.022c-1.936 1.63-4.265 2.891-6.99 3.781-2.724 0.891-5.78 1.337-9.166 1.337h-20.32v-55.611h13.445v45.298h6.875c1.909 0 3.515-0.368 4.812-1.108 1.324-0.738 2.331-1.719 3.017-2.94 0.688-1.248 1.031-2.635 1.031-4.164 0-1.476-0.343-2.788-1.031-3.934-0.686-1.145-1.692-2.050-3.017-2.711-1.298-0.663-2.903-0.994-4.812-0.994h-11.956v-10.311zM464.558 51.056v55.611h-13.369v-55.611h13.369zM501.257 80.044h-9.586v-6.72h7.104c1.655 0 2.992-0.268 4.011-0.804 0.987-0.534 1.765-1.349 2.239-2.337l0.013-0.031c0.485-1.044 0.727-2.267 0.727-3.668 0-1.044-0.281-2.011-0.841-2.901-0.535-0.892-1.362-1.605-2.484-2.139-1.12-0.535-2.546-0.804-4.277-0.804-1.324 0-2.533 0.217-3.628 0.651-1.095 0.432-1.961 1.068-2.597 1.909-0.636 0.814-0.955 1.833-0.955 3.054h-13.367c0-2.494 0.548-4.722 1.641-6.684 1.138-2.004 2.637-3.674 4.425-4.972l0.045-0.031c1.909-1.374 4.1-2.418 6.569-3.131 2.318-0.703 4.981-1.108 7.74-1.108 0.045 0 0.091 0 0.136 0l-0.007-0c3.184 0 6.060 0.343 8.633 1.031 2.571 0.661 4.773 1.653 6.606 2.978 1.807 1.279 3.256 2.947 4.244 4.889l0.035 0.076c0.992 1.961 1.49 4.24 1.49 6.837 0 0.016 0 0.034 0 0.053 0 1.949-0.481 3.785-1.33 5.397l0.030-0.063c-0.841 1.68-2.050 3.156-3.628 4.43-1.579 1.273-3.476 2.279-5.691 3.017-2.19 0.711-4.622 1.068-7.296 1.068zM491.671 76.645h9.586c2.98 0 5.628 0.32 7.945 0.955 2.318 0.636 4.277 1.566 5.883 2.789 1.581 1.179 2.839 2.706 3.674 4.472l0.031 0.072c0.839 1.783 1.26 3.833 1.26 6.151 0 2.596-0.548 4.914-1.643 6.951-1.070 2.011-2.585 3.716-4.546 5.116s-4.277 2.459-6.951 3.172c-2.647 0.711-5.563 1.068-8.747 1.068-2.571 0-5.131-0.306-7.676-0.916-2.606-0.653-4.898-1.65-6.972-2.961l0.097 0.058c-2.034-1.279-3.701-2.958-4.928-4.939l-0.038-0.065c-1.223-2.036-1.835-4.48-1.835-7.333h13.445c0 1.12 0.331 2.126 0.994 3.019 0.686 0.889 1.628 1.591 2.825 2.1 1.198 0.51 2.56 0.764 4.087 0.764 1.783 0 3.298-0.281 4.546-0.841 1.273-0.56 2.24-1.324 2.903-2.292 0.621-0.885 0.992-1.984 0.992-3.171 0-0.013-0-0.026-0-0.038v0.002c0-1.376-0.165-2.535-0.496-3.477-0.331-0.967-0.828-1.742-1.49-2.329-0.661-0.612-1.49-1.044-2.482-1.298-0.969-0.281-2.089-0.421-3.362-0.421h-7.104v-6.608zM570.117 73.132v10.311h-28.532v-10.311h28.532zM546.055 51.056v55.611h-13.406v-55.611h13.406zM579.131 51.056v55.611h-13.367v-55.611h13.367zM630.613 96.354v10.313h-29.639v-10.311h29.639zM605.749 51.056v55.611h-13.406v-55.611h13.406zM626.793 73.132v9.968h-25.819v-9.968h25.819zM630.727 51.056v10.35h-29.753v-10.35h29.753zM672.432 87.838h13.367c-0.178 3.868-1.221 7.282-3.132 10.235-1.909 2.955-4.556 5.259-7.943 6.914-3.362 1.628-7.333 2.444-11.916 2.444-3.719 0-7.042-0.624-9.97-1.872-2.934-1.264-5.41-3.091-7.389-5.362l-0.021-0.024c-2.011-2.341-3.552-5.18-4.62-8.516-1.045-3.337-1.566-7.093-1.566-11.268v-3.017c0-4.178 0.548-7.932 1.643-11.268 1.12-3.362 2.699-6.213 4.736-8.556 2.002-2.303 4.476-4.141 7.278-5.371l0.132-0.052c2.876-1.25 6.073-1.872 9.586-1.872 4.839 0 8.924 0.866 12.261 2.596 3.335 1.732 5.92 4.114 7.753 7.143 1.833 3.004 2.916 6.43 3.246 10.276h-13.367c-0.052-2.089-0.409-3.833-1.070-5.234-0.652-1.41-1.743-2.525-3.094-3.192l-0.039-0.017c-1.426-0.711-3.323-1.068-5.691-1.068-1.655 0-3.093 0.306-4.316 0.916-1.221 0.612-2.24 1.579-3.054 2.903-0.816 1.324-1.426 3.044-1.835 5.156-0.38 2.089-0.572 4.61-0.572 7.564v3.093c0 2.953 0.178 5.476 0.535 7.563 0.356 2.087 0.93 3.794 1.719 5.118 0.789 1.323 1.808 2.304 3.054 2.94 1.275 0.612 2.827 0.917 4.661 0.917 2.036 0 3.755-0.32 5.156-0.956 1.38-0.647 2.492-1.672 3.228-2.943l0.019-0.035c0.764-1.351 1.172-3.068 1.223-5.156zM714.441 85.698l13.14-34.642h14.169l-18.754 44.114c-0.713 1.63-1.54 3.182-2.482 4.66-0.939 1.503-2.026 2.796-3.27 3.92l-0.016 0.014c-1.248 1.137-2.719 2.055-4.335 2.681l-0.095 0.032c-1.707 0.661-3.705 0.992-5.996 0.992-0.56 0-1.248-0.012-2.062-0.037-0.789 0-1.477-0.014-2.062-0.039l-0.229-10.388c0.331 0.075 0.789 0.126 1.374 0.151h1.26c1.529 0 2.738-0.178 3.628-0.533 0.892-0.382 1.591-0.942 2.101-1.682 0.535-0.764 0.994-1.732 1.374-2.903l2.254-6.34zM706.992 51.056l11.383 24.139 4.354 15.431h-9.625l-20.357-39.57h14.245z"></path>
<path fill="#000" style="fill: var(--color4, #000)" opacity="0.2" d="M-1045.333-577.778h2844.444v1820.444h-2844.444z"></path>
<path fill="#fff" style="fill: var(--color2, #fff)" d="M-92.444-177.778c0-3.927 3.184-7.111 7.111-7.111v0h924.444c3.927 0 7.111 3.184 7.111 7.111v0 1018.667c0 3.927-3.184 7.111-7.111 7.111v0h-924.444c-3.927 0-7.111-3.184-7.111-7.111v0-1018.667z"></path>
<path fill="none" stroke="#212121" style="stroke: var(--color6, #212121)" stroke-linejoin="miter" stroke-linecap="butt" stroke-miterlimit="4" stroke-width="1.7778" d="M-14.222-18.667h782.222c3.436 0 6.222 2.786 6.222 6.222v56.889c0 3.436-2.786 6.222-6.222 6.222h-782.222c-3.436 0-6.222-2.786-6.222-6.222v-56.889c0-3.436 2.786-6.222 6.222-6.222z"></path>
<path fill="#212121" style="fill: var(--color6, #212121)" d="M16 16c2.946 0 5.333-2.388 5.333-5.333s-2.388-5.333-5.333-5.333v0c-2.946 0-5.333 2.388-5.333 5.333s2.388 5.333 5.333 5.333v0zM16 18.667c-3.561 0-10.667 1.787-10.667 5.333v1.333c0 0.732 0.599 1.333 1.333 1.333h18.667c0.732 0 1.333-0.601 1.333-1.333v-1.333c0-3.547-7.108-5.333-10.667-5.333z"></path>
</symbol>
</defs>
</svg>
